{"title":"Eaten Alive 1977 DVDRip Xvid BigPerm","uid":5903355,"size":877005737,"categoryP":"video","categoryS":"movies","magnet":"?xt=urn:btih:0bb63c91e306a46b1eb4063148837d9c7c64bf2e&amp;dn=Eaten+Alive+1977+DVDRip+Xvid+BigPerm&amp;tr=udp%3A%2F%2Ftracker.openbittorrent.com%3A80&amp;tr=udp%3A%2F%2Fopen.demonii.com%3A1337&amp;tr=udp%3A%2F%2Ftracker.coppersurfer.tk%3A6969&amp;tr=udp%3A%2F%2Fexodus.desync.com%3A6969","seeders":3,"leechers":0,"uploader":"deffjam555","files":3,"time":1287756395,"description":"Plot\n\nA psychotic redneck who owns a dilapidated hotel in the backwater swamps of Louisiana kills\nvarious people who upset him or his business, and he feeds their bodies to a large crocodile\nthat he keeps as a pet in the swamp beside his hotel.\n\n\nCast\n\nNeville Brand ... Judd\nMel Ferrer ... Harvey Wood\nCarolyn Jones ... Miss Hattie\nMarilyn Burns ... Faye\nWilliam Finley ... Roy\nStuart Whitman ... Sheriff Martin\nRoberta Collins ... Clara\nKyle Richards ... Angie\nRobert Englund ... Buck\nCrystin Sinclaire ... Libby Wood\nJanus Blythe ... Lynette\nBetty Cole ... Ruby\nSig Sakowicz ... Deputy Girth\nRonald W. Davis ... Country Boy\nChristine Schneider ... Waitress\n\nComplete name : Eaten Alive 1977 DVDRip Xvid BigPerm LKRG\\EatenAlive_LKRG.avi\nFormat : AVI\nFormat/Info : Audio Video Interleave\nFile size : 836 MiB\nDuration : 1h 30mn\nOverall bit rate : 1 286 Kbps\n\nVideo\nID : 0\nFormat : MPEG-4 Visual\nFormat profile : Simple@L3\nFormat settings, BVOP : No\nFormat settings, QPel : No\nFormat settings, GMC : No warppoints\nFormat settings, Matrix : Default (H.263)\nCodec ID : XVID\nCodec ID/Hint : XviD\nDuration : 1h 30mn\nBit rate : 1 082 Kbps\nWidth : 700 pixels\nHeight : 400 pixels\nDisplay aspect ratio : 16:9\nFrame rate : 29.970 fps\nResolution : 8 bits\nColorimetry : 4:2:0\nScan type : Progressive\nBits/(Pixel*Frame) : 0.129\nStream size : 704 MiB (84%)\nWriting library : XviD 1.2.1 (UTC 2008-12-04)\n\nAudio\nID : 1\nFormat : AC-3\nFormat/Info : Audio Coding 3\nCodec ID : 2000\nDuration : 1h 30mn\nBit rate mode : Constant\nBit rate : 192 Kbps\nChannel(s) : 2 channels\nChannel positions : Front: L R\nSampling rate : 48.0 KHz\nStream size : 125 MiB (15%)\nAlignment : Aligned on interleaves\nInterleave, duration : 33 ms (1.00 video frame)\nInterleave, preload duration : 512 ms\nLanguage : English\n","torrent":{"xt":"urn:btih:0bb63c91e306a46b1eb4063148837d9c7c64bf2e","amp;dn":"Eaten+Alive+1977+DVDRip+Xvid+BigPerm","amp;tr":["udp%3A%2F%2Ftracker.openbittorrent.com%3A80","udp%3A%2F%2Fopen.demonii.com%3A1337","udp%3A%2F%2Ftracker.coppersurfer.tk%3A6969","udp%3A%2F%2Fexodus.desync.com%3A6969"],"infoHash":"0bb63c91e306a46b1eb4063148837d9c7c64bf2e","infoHashBuffer":{"type":"Buffer","data":[11,182,60,145,227,6,164,107,30,180,6,49,72,131,125,156,124,100,191,46]},"announce":[],"urlList":[]}}